<svg width="24" height="21" viewBox="0 0 24 21" fill="none" xmlns="http://www.w3.org/2000/svg">
<path fill-rule="evenodd" clip-rule="evenodd" d="M21.2492 0.983772C21.5272 0.866762 21.8315 0.826406 22.1304 0.866904C22.4293 0.907402 22.7119 1.02727 22.9487 1.21404C23.1856 1.40081 23.3681 1.64765 23.4771 1.92886C23.5862 2.21008 23.6179 2.51539 23.569 2.81302L21.0175 18.2896C20.77 19.7825 19.132 20.6386 17.7628 19.895C16.6176 19.2729 14.9166 18.3144 13.3866 17.3143C12.6216 16.8136 10.2782 15.2105 10.5662 14.0698C10.8137 13.0944 14.7512 9.42915 17.0012 7.25002C17.8843 6.3939 17.4816 5.90002 16.4387 6.68752C13.849 8.64277 9.69097 11.6161 8.31622 12.4531C7.10347 13.1911 6.47122 13.3171 5.71522 13.1911C4.33597 12.9616 3.05685 12.6061 2.01285 12.173C0.602099 11.588 0.670724 9.64852 2.01172 9.08377L21.2492 0.983772Z" fill="white"/>
</svg>
