<svg width="26" height="18" viewBox="0 0 26 18" fill="none" xmlns="http://www.w3.org/2000/svg">
<path d="M1.39958 17.1308C1.00303 17.1308 0.670867 16.9937 0.403082 16.7196C0.135297 16.4455 0.000937874 16.1067 4.8261e-06 15.7032C-0.000928222 15.2997 0.133431 14.9609 0.403082 14.6868C0.672733 14.4127 1.0049 14.2756 1.39958 14.2756H23.7927C24.1893 14.2756 24.5219 14.4127 24.7906 14.6868C25.0593 14.9609 25.1932 15.2997 25.1923 15.7032C25.1914 16.1067 25.057 16.446 24.7892 16.721C24.5214 16.9961 24.1893 17.1327 23.7927 17.1308H1.39958ZM1.39958 9.99294C1.00303 9.99294 0.670867 9.85589 0.403082 9.5818C0.135297 9.30771 0.000937874 8.9689 4.8261e-06 8.56538C-0.000928222 8.16185 0.133431 7.82304 0.403082 7.54895C0.672733 7.27486 1.0049 7.13781 1.39958 7.13781H23.7927C24.1893 7.13781 24.5219 7.27486 24.7906 7.54895C25.0593 7.82304 25.1932 8.16185 25.1923 8.56538C25.1914 8.9689 25.057 9.30818 24.7892 9.58323C24.5214 9.85827 24.1893 9.99484 23.7927 9.99294H1.39958ZM1.39958 2.85513C1.00303 2.85513 0.670867 2.71808 0.403082 2.44399C0.135297 2.16989 0.000937874 1.83109 4.8261e-06 1.42756C-0.000928222 1.02404 0.133431 0.68523 0.403082 0.411138C0.672733 0.137046 1.0049 0 1.39958 0H23.7927C24.1893 0 24.5219 0.137046 24.7906 0.411138C25.0593 0.68523 25.1932 1.02404 25.1923 1.42756C25.1914 1.83109 25.057 2.17037 24.7892 2.44541C24.5214 2.72046 24.1893 2.85703 23.7927 2.85513H1.39958Z" fill="#92C5FF"/>
</svg>
